<svg xmlns="http://www.w3.org/2000/svg" version="1.1" xmlns:xlink="http://www.w3.org/1999/xlink" xmlns:svgjs="http://svgjs.dev/svgjs" width="1000" height="623" viewBox="0 0 1000 623"><g transform="matrix(1,0,0,1,-0.6060606060606233,0.2522267206477409)"><svg viewBox="0 0 396 247" data-background-color="#282634" preserveAspectRatio="xMidYMid meet" height="623" width="1000" xmlns="http://www.w3.org/2000/svg" xmlns:xlink="http://www.w3.org/1999/xlink"><g id="tight-bounds" transform="matrix(1,0,0,1,0.2400000000000091,-0.09999999999999432)"><svg viewBox="0 0 395.52 247.2" height="247.2" width="395.52"><g><svg></svg></g><g><svg viewBox="0 0 395.52 247.2" height="247.2" width="395.52"><g><path xmlns="http://www.w3.org/2000/svg" d="M55.039 247.2l26.403-45.732 7.584 0-22.403 38.804h262.274l-22.403-38.804 7.584 0 26.403 45.732zM197.76 0l26.403 45.732-7.583 0-18.82-32.596-18.82 32.596-7.583 0z" fill="#ff4063" fill-rule="nonzero" stroke="none" stroke-width="1" stroke-linecap="butt" stroke-linejoin="miter" stroke-miterlimit="10" stroke-dasharray="" stroke-dashoffset="0" font-family="none" font-weight="none" font-size="none" text-anchor="none" style="mix-blend-mode: normal" data-fill-palette-color="tertiary"></path></g><g transform="matrix(1,0,0,1,25.045263157894738,67.97999999999999)"><svg viewBox="0 0 345.4294736842105 111.24" height="111.24" width="345.4294736842105"><g><svg viewBox="0 0 345.4294736842105 111.24" height="111.24" width="345.4294736842105"><g><svg viewBox="0 0 345.4294736842105 111.24" height="111.24" width="345.4294736842105"><g id="textblocktransform"><svg viewBox="0 0 345.4294736842105 111.24" height="111.24" width="345.4294736842105" id="textblock"><g><svg viewBox="0 0 345.4294736842105 111.24" height="111.24" width="345.4294736842105"><g transform="matrix(1,0,0,1,0,0)"><svg width="345.4294736842105" viewBox="3.700000047683716 -41.5 185.8300018310547 59.849998474121094" height="111.24" data-palette-color="#ff4057"><path d="M16.7-15.85L16.7-15.85Q19.8-20.45 22.83-24.33 25.85-28.2 28.6-31 31.35-33.8 33.65-35.35 35.95-36.9 37.65-36.9L37.65-36.9Q38.3-36.9 39.08-36.4 39.85-35.9 40.53-35.1 41.2-34.3 41.65-33.38 42.1-32.45 42.1-31.6L42.1-31.6Q39-30.6 36.02-28.98 33.05-27.35 30.33-25.23 27.6-23.1 25.13-20.5 22.65-17.9 20.65-14.95L20.65-14.95Q21.45-12.9 22.63-10.58 23.8-8.25 25.2-6.08 26.6-3.9 28.2-2.05 29.8-0.2 31.45 0.9L31.45 0.9Q31.2 1.45 30.6 1.95 30 2.45 29.3 2.88 28.6 3.3 27.83 3.55 27.05 3.8 26.4 3.8L26.4 3.8Q25.1 3.8 24 2.58 22.9 1.35 21.78-1.13 20.65-3.6 19.43-7.28 18.2-10.95 16.7-15.85ZM9.15 4.05L9.15 4.05Q7.25 3.6 6 2.48 4.75 1.35 3.7-0.35L3.7-0.35Q4.15-1.3 4.78-2.85 5.4-4.4 6.3-6.68 7.2-8.95 8.45-12.13 9.7-15.3 11.35-19.55L11.35-19.55Q12.4-22.25 13.08-24.1 13.75-25.95 14.23-27.73 14.7-29.5 15.15-31.65 15.6-33.8 16.2-37.1L16.2-37.1Q18.3-36.7 20.03-35.25 21.75-33.8 23-31.75L23-31.75Q22.45-31.05 21.73-29.63 21-28.2 20.1-26.2 19.2-24.2 18.1-21.75 17-19.3 15.8-16.55L15.8-16.55Q13.1-10.55 11.55-5.58 10-0.6 9.15 4.05ZM48.5-1.1L48.5-1.1Q47.55-1.9 47.22-3.1 46.9-4.3 46.9-5.15L46.9-5.15Q46.9-6.2 47.15-6.95L47.15-6.95Q46.95-6.95 46.25-6.15 45.55-5.35 44.72-4.25 43.9-3.15 43.1-2.1 42.3-1.05 41.9-0.55L41.9-0.55Q41.25 0.15 40.67 0.55 40.1 0.95 39.75 1L39.75 1Q38.95 0.95 38.07 0.68 37.2 0.4 36.42-0.1 35.65-0.6 35.07-1.3 34.5-2 34.3-2.9L34.3-2.9Q34.3-4.3 34.37-5.2 34.45-6.1 34.7-7.15L34.7-7.15Q35.15-9.05 36.02-11.45 36.9-13.85 38.05-16.18 39.2-18.5 40.62-20.53 42.05-22.55 43.65-23.7L43.65-23.7Q44.1-23.7 44.7-23.63 45.3-23.55 45.92-23.35 46.55-23.15 47.12-22.88 47.7-22.6 48.1-22.15L48.1-22.15Q47.65-21.65 45.82-18.8 44-15.95 41.75-10.6L41.75-10.6Q41.5-10.05 41.15-9 40.8-7.95 40.45-6.8 40.1-5.65 39.87-4.55 39.65-3.45 39.65-2.8L39.65-2.8Q39.65-2.4 39.77-2.2 39.9-2 40-1.9L40-1.9Q40.75-2.2 41.9-3.55 43.05-4.9 45.1-7.7L45.1-7.7Q45.6-8.4 46.27-9.3 46.95-10.2 47.65-11.23 48.35-12.25 48.97-13.35 49.6-14.45 50-15.55L50-15.55Q50.2-16.15 50.52-16.98 50.85-17.8 51.32-18.7 51.8-19.6 52.42-20.53 53.05-21.45 53.9-22.25L53.9-22.25Q54.55-22.25 55.3-22.1 56.05-21.95 56.72-21.73 57.4-21.5 57.9-21.23 58.4-20.95 58.65-20.65L58.65-20.65Q57.75-18.45 56.65-16.3 55.55-14.15 54.6-12.08 53.65-10 53-7.95 52.35-5.9 52.35-3.95L52.35-3.95Q52.35-2.9 52.52-2.13 52.7-1.35 52.9-0.83 53.1-0.3 53.27 0.05 53.45 0.4 53.45 0.65L53.45 0.65Q53.45 0.7 53.35 0.8L53.35 0.8Q53.3 0.85 53.25 0.85L53.25 0.85Q52.9 0.85 52.35 0.7 51.8 0.55 51.12 0.28 50.45 0 49.77-0.35 49.1-0.7 48.5-1.1ZM76.84-19.9L76.84-19.9Q76.8-18.95 76.52-17.93 76.25-16.9 75.84-16.07 75.45-15.25 75-14.7 74.55-14.15 74.15-14.15L74.15-14.15Q73.59-14.2 73.5-14.9L73.5-14.9Q73.5-15.05 73.62-15.38 73.75-15.7 73.9-16.1 74.05-16.5 74.17-16.9 74.3-17.3 74.3-17.6L74.3-17.6Q74.3-18.3 73.97-18.78 73.65-19.25 73.09-19.25L73.09-19.25Q71.09-19.25 70.05-16.75 69-14.25 69-9.4L69-9.4Q69-8.9 69.05-8.8L69.05-8.8Q70.09-8.85 70.92-8.88 71.75-8.9 72.55-8.9L72.55-8.9Q72.59-8.8 72.59-8.5L72.59-8.5Q72.59-8.05 72.4-7.85L72.4-7.85Q71.25-7.6 70.57-7.43 69.9-7.25 69.55-7.1 69.2-6.95 69.12-6.78 69.05-6.6 69.05-6.3L69.05-6.3Q69.05-5.9 69.07-5.5 69.09-5.1 69.09-4.5L69.09-4.5Q69.09-0.3 66.82 2.25 64.55 4.8 60.5 5.2L60.5 5.2Q59.8 5.15 59.05 4.8 58.3 4.45 57.62 3.9 56.95 3.35 56.45 2.68 55.95 2 55.75 1.3L55.75 1.3Q55.75-0.6 56.55-2.33 57.35-4.05 58.72-5.38 60.1-6.7 61.97-7.53 63.85-8.35 66.05-8.5L66.05-8.5Q66.05-9.75 65.8-10.95 65.55-12.15 65.27-13.28 65-14.4 64.75-15.48 64.5-16.55 64.5-17.6L64.5-17.6Q64.5-18.95 65.05-20.28 65.59-21.6 66.5-22.73 67.4-23.85 68.59-24.65 69.8-25.45 71.09-25.75L71.09-25.75Q71.65-25.6 72.57-24.88 73.5-24.15 74.4-23.25 75.3-22.35 76-21.43 76.7-20.5 76.84-19.9ZM60.35 2.9L60.35 2.9Q61.55 2.4 62.62 1.45 63.7 0.5 64.5-0.7 65.3-1.9 65.77-3.25 66.25-4.6 66.25-5.9L66.25-5.9Q65.25-5.75 64.05-4.98 62.85-4.2 61.8-3.13 60.75-2.05 60.05-0.9 59.35 0.25 59.35 1.1L59.35 1.1Q59.35 2.2 60.35 2.9ZM76.84-0.85L76.84-0.85Q76.84-2.6 77.19-4.98 77.54-7.35 78.22-10.05 78.89-12.75 79.82-15.7 80.74-18.65 81.89-21.6L81.89-21.6Q82.89-24.25 84.22-26.95 85.54-29.65 87.09-32.25 88.64-34.85 90.32-37.2 91.99-39.55 93.69-41.5L93.69-41.5Q94.49-41.5 95.42-41.3 96.34-41.1 97.22-40.78 98.09-40.45 98.82-40 99.54-39.55 99.99-39.1L99.99-39.1Q96.24-35.25 93.24-31.33 90.24-27.4 88.49-23.95L88.49-23.95Q87.54-22.05 86.77-20.4 85.99-18.75 85.34-17.13 84.69-15.5 84.17-13.88 83.64-12.25 83.19-10.45L83.19-10.45Q92.79-22.7 97.44-22.7L97.44-22.7Q98.74-22.7 100.24-21.85 101.74-21 102.89-19.55L102.89-19.55Q101.34-17.85 99.69-15.45 98.04-13.05 96.67-10.63 95.29-8.2 94.42-6.13 93.54-4.05 93.54-3.05L93.54-3.05Q93.54-2.55 93.69-2.38 93.84-2.2 94.34-2.2L94.34-2.2Q95.09-2.2 95.54-2.4 95.99-2.6 96.09-2.6L96.09-2.6Q96.34-2.2 96.39-2.05 96.44-1.9 96.44-1.8L96.44-1.8Q96.44-1.6 95.84-1.23 95.24-0.85 94.42-0.48 93.59-0.1 92.79 0.2 91.99 0.5 91.59 0.5L91.59 0.5Q91.09 0.5 90.59 0.23 90.09-0.05 89.72-0.5 89.34-0.95 89.12-1.5 88.89-2.05 88.89-2.65L88.89-2.65Q88.89-3.4 89.32-4.88 89.74-6.35 90.49-8.33 91.24-10.3 92.29-12.65 93.34-15 94.54-17.45L94.54-17.45Q94.54-17.65 94.34-17.65L94.34-17.65Q94.19-17.65 93.57-17.25 92.94-16.85 92.39-16.45L92.39-16.45Q90.59-15.1 88.77-13.13 86.94-11.15 85.22-8.8 83.49-6.45 81.97-3.83 80.44-1.2 79.34 1.45L79.34 1.45Q79.19 1.8 78.89 2.1 78.59 2.4 78.39 2.4L78.39 2.4Q78.24 2.4 77.97 2.05 77.69 1.7 77.47 1.18 77.24 0.65 77.04 0.1 76.84-0.45 76.84-0.85ZM119.99-20.2L119.99-20.2Q120.49-20.2 121.17-20.03 121.84-19.85 122.39-19.58 122.94-19.3 123.32-19 123.69-18.7 123.69-18.45L123.69-18.45Q122.69-16.35 121.84-14.23 120.99-12.1 120.39-10.15 119.79-8.2 119.47-6.5 119.14-4.8 119.14-3.55L119.14-3.55Q119.14-2.15 119.44-1.23 119.74-0.3 120.44 0.1L120.44 0.1Q119.84 0.5 118.89 0.75 117.94 1 117.19 1L117.19 1Q114.49 1 114.49-2.7L114.49-2.7Q114.49-5.55 116.39-10.5L116.39-10.5Q115.39-8.2 114.09-6.18 112.79-4.15 111.44-2.6 110.09-1.05 108.72-0.08 107.34 0.9 106.19 1.1L106.19 1.1Q104.34 1 103.19-0.68 102.04-2.35 102.04-4.95L102.04-4.95Q102.04-7.75 103.24-10.85 104.44-13.95 106.32-16.6 108.19-19.25 110.39-21.03 112.59-22.8 114.64-22.9L114.64-22.9Q115.14-22.75 115.77-22.3 116.39-21.85 116.97-21.25 117.54-20.65 117.94-20.03 118.34-19.4 118.39-18.95L118.39-18.95Q116.39-18.65 114.27-17 112.14-15.35 110.42-13.03 108.69-10.7 107.59-8.05 106.49-5.4 106.49-3.1L106.49-3.1Q106.49-2.15 107.19-1.9L107.19-1.9Q108.64-2.2 110.54-4.38 112.44-6.55 115.14-11.1L115.14-11.1Q115.64-12 116.27-13.1 116.89-14.2 117.54-15.4 118.19-16.6 118.82-17.82 119.44-19.05 119.99-20.2ZM115.84 14.9L115.84 14.9Q115.84 14.6 116.04 14.35 116.24 14.1 116.49 13.85L116.49 13.85Q117.09 14.4 117.51 14.7 117.94 15 118.31 15.2 118.69 15.4 119.09 15.45 119.49 15.5 120.04 15.5L120.04 15.5Q122.64 15.5 124.99 14.13 127.34 12.75 129.41 10.15 131.49 7.55 133.19 3.8 134.89 0.05 136.19-4.7L136.19-4.7Q135.59-4.1 134.71-3.38 133.84-2.65 132.89-2 131.94-1.35 131.01-0.8 130.09-0.25 129.44 0L129.44 0Q128.59-0.15 127.86-0.73 127.14-1.3 126.59-2.15 126.04-3 125.74-4.08 125.44-5.15 125.44-6.35L125.44-6.35Q125.44-8.3 126.16-10.35 126.89-12.4 128.09-14.38 129.29-16.35 130.91-18.1 132.54-19.85 134.36-21.15 136.19-22.45 138.06-23.23 139.94-24 141.74-24L141.74-24Q143.49-24 144.36-23.28 145.24-22.55 145.64-20.8L145.64-20.8Q145.09-21.1 144.24-21.1L144.24-21.1Q143.04-21.1 141.46-20.15 139.89-19.2 138.26-17.68 136.64-16.15 135.04-14.18 133.44-12.2 132.21-10.15 130.99-8.1 130.21-6.15 129.44-4.2 129.44-2.65L129.44-2.65Q129.44-2.3 129.49-2.23 129.54-2.15 129.64-2.15L129.64-2.15Q130.09-2.15 130.86-2.65 131.64-3.15 132.61-3.93 133.59-4.7 134.64-5.73 135.69-6.75 136.64-7.8L136.64-7.8Q138.79-10.2 140.56-13.18 142.34-16.15 143.39-18.95L143.39-18.95Q144.74-18.85 145.79-18.5 146.84-18.15 147.24-17.75L147.24-17.75Q145.54-13.85 144.51-11.2 143.49-8.55 142.74-6.5L142.74-6.5Q141.39-2.9 140.21 0.08 139.04 3.05 137.81 5.58 136.59 8.1 135.16 10.28 133.74 12.45 131.94 14.45L131.94 14.45Q131.09 15.4 130.01 16.13 128.94 16.85 127.81 17.35 126.69 17.85 125.61 18.1 124.54 18.35 123.64 18.35L123.64 18.35Q122.44 18.35 121.19 18.07 119.94 17.8 118.86 17.32 117.79 16.85 116.99 16.23 116.19 15.6 115.84 14.9ZM147.24-1L147.24-1Q147.49-2.45 148.11-4.83 148.74-7.2 149.59-9.88 150.44-12.55 151.39-15.25 152.34-17.95 153.24-20.1L153.24-20.1Q153.89-21.65 154.39-22.53 154.89-23.4 155.49-24L155.49-24Q156.19-23.9 156.94-23.65 157.69-23.4 158.39-23.05 159.09-22.7 159.64-22.33 160.19-21.95 160.49-21.6L160.49-21.6Q159.14-20 158.11-17.95 157.09-15.9 156.04-12.7L156.04-12.7Q158.74-15.1 160.81-17.3 162.89-19.5 164.69-22.2L164.69-22.2Q164.99-22.45 165.74-22.45L165.74-22.45Q166.44-22.45 167.09-22.23 167.74-22 167.99-21.6L167.99-21.6Q167.09-19.2 167.09-16.85L167.09-16.85Q167.09-14.65 167.74-13.55L167.74-13.55Q167.69-13.25 167.06-12.4 166.44-11.55 165.69-10.8L165.69-10.8Q164.34-11.5 163.29-12.73 162.24-13.95 161.74-15.4L161.74-15.4Q159.39-13.75 157.74-12.18 156.09-10.6 154.91-8.68 153.74-6.75 152.91-4.25 152.09-1.75 151.34 1.7L151.34 1.7Q150.89 1.65 150.26 1.38 149.64 1.1 149.01 0.7 148.39 0.3 147.89-0.15 147.39-0.6 147.24-1ZM185.83-20.2L185.83-20.2Q186.33-20.2 187.01-20.03 187.68-19.85 188.23-19.58 188.78-19.3 189.16-19 189.53-18.7 189.53-18.45L189.53-18.45Q188.53-16.35 187.68-14.23 186.83-12.1 186.23-10.15 185.63-8.2 185.31-6.5 184.98-4.8 184.98-3.55L184.98-3.55Q184.98-2.15 185.28-1.23 185.58-0.3 186.28 0.1L186.28 0.1Q185.68 0.5 184.73 0.75 183.78 1 183.03 1L183.03 1Q180.33 1 180.33-2.7L180.33-2.7Q180.33-5.55 182.23-10.5L182.23-10.5Q181.23-8.2 179.93-6.18 178.63-4.15 177.28-2.6 175.93-1.05 174.56-0.08 173.18 0.9 172.03 1.1L172.03 1.1Q170.18 1 169.03-0.68 167.88-2.35 167.88-4.95L167.88-4.95Q167.88-7.75 169.08-10.85 170.28-13.95 172.16-16.6 174.03-19.25 176.23-21.03 178.43-22.8 180.48-22.9L180.48-22.9Q180.98-22.75 181.61-22.3 182.23-21.85 182.81-21.25 183.38-20.65 183.78-20.03 184.18-19.4 184.23-18.95L184.23-18.95Q182.23-18.65 180.11-17 177.98-15.35 176.26-13.03 174.53-10.7 173.43-8.05 172.33-5.4 172.33-3.1L172.33-3.1Q172.33-2.15 173.03-1.9L173.03-1.9Q174.48-2.2 176.38-4.38 178.28-6.55 180.98-11.1L180.98-11.1Q181.48-12 182.11-13.1 182.73-14.2 183.38-15.4 184.03-16.6 184.66-17.82 185.28-19.05 185.83-20.2Z" opacity="1" transform="matrix(1,0,0,1,0,0)" fill="#ff4057" class="undefined-text-0" data-fill-palette-color="primary" id="text-0"></path></svg></g></svg></g></svg></g></svg></g></svg></g></svg></g></svg></g><defs></defs></svg><rect width="395.52" height="247.2" fill="none" stroke="none" visibility="hidden"></rect></g></svg></g></svg>